<?xml version="1.0" encoding="UTF-8" standalone="no"?>
<svg
   xmlns:dc="http://purl.org/dc/elements/1.1/"
   xmlns:cc="http://creativecommons.org/ns#"
   xmlns:rdf="http://www.w3.org/1999/02/22-rdf-syntax-ns#"
   xmlns:svg="http://www.w3.org/2000/svg"
   xmlns="http://www.w3.org/2000/svg"
   xmlns:sodipodi="http://sodipodi.sourceforge.net/DTD/sodipodi-0.dtd"
   xmlns:inkscape="http://www.inkscape.org/namespaces/inkscape"
   version="1.1"
   id="Capa_1"
   x="0px"
   y="0px"
   viewBox="0 0 71.075165 71.076065"
   xml:space="preserve"
   sodipodi:docname="brain.svg"
   width="71.075165"
   height="71.076065"
   inkscape:version="1.0.2 (e86c870879, 2021-01-15, custom)"><metadata
   id="metadata1927"><rdf:RDF><cc:Work
       rdf:about=""><dc:format>image/svg+xml</dc:format><dc:type
         rdf:resource="http://purl.org/dc/dcmitype/StillImage" /><dc:title></dc:title></cc:Work></rdf:RDF></metadata><defs
   id="defs1925" /><sodipodi:namedview
   pagecolor="#ffffff"
   bordercolor="#666666"
   borderopacity="1"
   objecttolerance="10"
   gridtolerance="10"
   guidetolerance="10"
   inkscape:pageopacity="0"
   inkscape:pageshadow="2"
   inkscape:window-width="1245"
   inkscape:window-height="1417"
   id="namedview1923"
   showgrid="false"
   inkscape:zoom="2"
   inkscape:cx="27.407614"
   inkscape:cy="40.498503"
   inkscape:window-x="1307"
   inkscape:window-y="-8"
   inkscape:window-maximized="0"
   inkscape:current-layer="layer3"
   fit-margin-left="1"
   fit-margin-right="1"
   fit-margin-top="1"
   fit-margin-bottom="1" />
<g
   id="g1890"
   style="display:none"
   transform="translate(-195.96297,-195.9521)">
	
	
	<path
   d="m 439,223.5 c 0,-17.075 -6.82,-33.256 -18.875,-45.156 C 422.034,172.236 423,165.918 423,159.5 423,128.626 400.848,102.841 371.606,97.171 373.841,91.6 375,85.628 375,79.5 375,59.943 363.117,43.113 346.194,35.839 317.999,13.383 287.162,0 263.5,0 250.347,0 238.683,6.468 231.5,16.384 224.317,6.468 212.653,0 199.5,0 175.838,0 145.001,13.383 116.806,35.839 99.883,43.113 88,59.943 88,79.5 88,85.628 89.159,91.6 91.394,97.171 62.152,102.841 40,128.626 40,159.5 c 0,6.418 0.965,12.735 2.875,18.844 C 30.82,190.244 24,206.425 24,223.5 c 0,13.348 4.149,25.741 11.213,35.975 C 27.872,270.087 24,282.466 24,295.5 c 0,23.088 12.587,44.242 32.516,55.396 -0.343,2.852 -0.516,5.73 -0.516,8.604 0,31.144 20.315,58.679 49.79,68.063 12.821,21.942 36.175,35.437 61.71,35.437 27.995,0 52.269,-16.181 64,-39.674 11.731,23.493 36.005,39.674 64,39.674 25.535,0 48.889,-13.495 61.71,-35.437 29.475,-9.385 49.79,-36.92 49.79,-68.063 0,-2.874 -0.173,-5.752 -0.516,-8.604 C 426.413,339.742 439,318.588 439,295.5 439,282.466 435.128,270.087 427.787,259.475 434.851,249.241 439,236.848 439,223.5 Z m -215,168 c 0,31.154 -25.346,56.5 -56.5,56.5 -21.029,0 -40.191,-11.594 -50.009,-30.256 -0.973,-1.849 -2.671,-3.208 -4.688,-3.751 C 88.19,407.369 71,384.961 71,359.5 c 0,-3.81 0.384,-7.626 1.141,-11.344 0.702,-3.447 -1.087,-6.92 -4.302,-8.35 C 50.32,332.018 39,314.626 39,295.5 39,286.801 41.256,278.486 45.561,271.121 56.757,280.992 71.436,287 87.5,287 91.642,287 95,283.643 95,279.5 95,275.357 91.642,272 87.5,272 60.757,272 39,250.243 39,223.5 c 0,-14.396 6.352,-27.964 17.428,-37.221 2.5,-2.09 3.365,-5.555 2.14,-8.574 C 56.2,171.869 55,165.744 55,159.5 55,132.757 76.757,111 103.5,111 c 26.743,0 48.5,21.757 48.5,48.5 0,4.143 3.358,7.5 7.5,7.5 4.142,0 7.5,-3.357 7.5,-7.5 C 167,125.858 140.698,98.257 107.579,96.145 104.577,91.127 103,85.421 103,79.5 c 0,-13.369 8.116,-24.875 19.678,-29.859 0.447,-0.133 0.885,-0.307 1.308,-0.527 C 127.568,47.752 131.447,47 135.5,47 c 12.557,0 23.767,7.021 29.256,18.325 1.81,3.727 6.298,5.281 10.023,3.47 3.726,-1.809 5.28,-6.296 3.47,-10.022 C 171.983,45.87 160.124,36.596 146.467,33.311 165.609,21.631 184.454,15 199.5,15 c 13.509,0 24.57925,10.137441 24.5,24.5 -0.0793,1.049331 0.45971,6.384949 7.34151,6.339632 C 238.22331,45.794316 239,39.5 239,39.5 239,25.99 249.991,15 263.5,15 c 15.046,0 33.891,6.631 53.033,18.311 -13.657,3.284 -25.516,12.559 -31.782,25.462 -1.81,3.727 -0.256,8.214 3.47,10.022 3.726,1.81 8.213,0.257 10.023,-3.47 C 303.733,54.021 314.943,47 327.5,47 c 4.053,0 7.933,0.752 11.514,2.114 0.422,0.22 0.86,0.393 1.305,0.526 C 351.883,54.624 360,66.13 360,79.5 c 0,5.921 -1.577,11.627 -4.579,16.645 C 322.302,98.257 296,125.858 296,159.5 c 0,4.143 3.358,7.5 7.5,7.5 4.142,0 7.5,-3.357 7.5,-7.5 0,-26.743 21.757,-48.5 48.5,-48.5 26.743,0 48.5,21.757 48.5,48.5 0,6.244 -1.2,12.369 -3.567,18.205 -1.225,3.02 -0.36,6.484 2.14,8.574 11.075,9.257 17.427,22.825 17.427,37.221 0,26.743 -21.757,48.5 -48.5,48.5 -4.142,0 -7.5,3.357 -7.5,7.5 0,4.143 3.358,7.5 7.5,7.5 16.064,0 30.743,-6.008 41.939,-15.879 4.306,7.365 6.561,15.68 6.561,24.379 0,19.126 -11.32,36.518 -28.839,44.307 -3.215,1.43 -5.004,4.902 -4.302,8.35 0.757,3.718 1.141,7.534 1.141,11.344 0,25.461 -17.19,47.869 -41.803,54.493 -2.017,0.543 -3.716,1.902 -4.688,3.751 C 335.691,436.406 316.529,448 295.5,448 264.346,448 239,422.654 239,391.5 c 0,0 0.80377,-7.42091 -7.38309,-7.54074 C 223.43005,383.83942 224,391.5 224,391.5 Z"
   id="path1884"
   sodipodi:nodetypes="scscscscscscscscscscscscscscscsccsccscsssscsssssscsccsccccsczcsccccsccscsssssccsssscscssccsczc" />
	
	
</g><g
   inkscape:groupmode="layer"
   id="layer3"
   inkscape:label="Layer 1"
   transform="translate(0.53755628,0.54696977)"><path
     id="path3490"
     style="display:inline;fill:#ffffff;stroke:#000000;stroke-width:1;stroke-miterlimit:4;stroke-dasharray:none"
     d="m 29.793491,4.0743744 c -2.037341,0.057195 -4.007444,0.6360111 -5.849202,1.3826698 -1.328702,0.5410278 -2.5779,1.2198897 -3.823448,1.8965805 -0.256413,0.1378439 -0.512714,0.2758532 -0.769077,0.4137722 0.766692,0.1835398 1.540812,0.3411426 2.307145,0.525615 1.824976,0.4181379 3.428104,1.5796598 4.221407,3.1087711 0.04526,0.165684 -0.186645,0.324099 -0.34849,0.220227 C 25.397448,11.54103 25.375742,11.383114 25.285924,11.270037 24.45015,9.910883 22.919373,8.9057657 21.208593,8.6203486 19.896251,8.3880773 18.499927,8.5617113 17.310455,9.1089797 c -1.69618,0.7664051 -2.934686,2.2912803 -3.201239,3.9730743 -0.204678,1.221904 0.08064,2.503904 0.797169,3.561465 0.134615,0.249294 0.44924,0.401629 0.756506,0.374193 0.117963,0.0066 0.200581,0.01464 0.324029,0.02486 0.08774,0.0082 0.228588,0.02325 0.336053,0.03709 0.432899,0.05587 0.861555,0.13866 1.280947,0.249583 0.07931,0.02236 0.211326,0.05779 0.309582,0.08823 1.778652,0.533922 3.356235,1.580224 4.441762,2.945959 1.068182,1.336142 1.671993,2.972532 1.653283,4.616457 0.03539,0.192058 -0.295135,0.3021 -0.41041,0.136084 -0.09704,-0.1219 -0.03347,-0.278658 -0.05671,-0.416783 -0.07655,-1.998376 -1.094122,-3.950282 -2.753235,-5.294108 -1.503878,-1.231945 -3.517065,-1.961387 -5.56093,-1.988892 -2.015308,-0.03877 -4.038464,0.587268 -5.585285,1.742131 -1.6236712,1.199698 -2.7286937,2.950665 -3.0006555,4.818562 -0.1999324,1.313416 0.00232,2.670643 0.562557,3.897184 0.029296,0.166418 -0.1603476,0.253423 -0.2755187,0.349242 -1.713795,1.344595 -2.7706934,3.330766 -2.8495436,5.366203 -0.084088,1.840755 0.6151305,3.701867 1.9394945,5.117036 1.4231562,1.539321 3.5464379,2.558358 5.7806423,2.721073 0.282944,0.0275 0.570647,0.02302 0.852219,0.04711 0.166239,0.05842 0.201775,0.289831 0.03641,0.368228 -0.13807,0.07193 -0.304687,0.01749 -0.455563,0.02817 -0.320499,-0.0098 -0.678411,-0.03811 -1.011814,-0.08362 -0.172902,-0.02261 -0.383092,-0.05702 -0.568852,-0.09369 C 9.0995587,41.39295 7.6520141,40.705789 6.4816895,39.7509 6.248535,39.57167 6.015379,39.39244 5.7822355,39.213198 c -0.5419747,0.825181 -1.1037667,1.658551 -1.382674,2.590616 -0.6478946,1.996971 -0.3184033,4.229484 0.899335,6.003451 0.8996231,1.330217 2.2704207,2.398548 3.8624855,3.025761 0.1281475,0.08353 0.1020858,0.238106 0.063258,0.355733 -0.463827,2.172526 0.054283,4.497752 1.421516,6.343409 1.231185,1.681027 3.130683,2.967117 5.286679,3.55058 0.143799,0.05501 0.326857,0.04778 0.44236,0.150139 0.180678,0.258763 0.329865,0.534514 0.526797,0.78464 1.292375,1.756007 3.319981,3.072355 5.598618,3.60923 2.27484,0.545347 4.771496,0.329777 6.87622,-0.61867 2.238358,-0.998768 4.020677,-2.789581 4.840878,-4.901517 0.380328,-0.959755 0.552574,-1.979769 0.55367,-2.995893 0.0044,-0.05895 0.05628,-0.08745 0.118094,-0.08048 0.107023,-0.01 0.227417,-0.02155 0.32404,0.02808 0.05015,0.177429 8.73e-4,0.364106 0.02812,0.545002 0.09214,2.18364 1.164189,4.317013 2.920421,5.838838 1.633978,1.430434 3.846269,2.328831 6.133464,2.460052 2.339246,0.147925 4.732958,-0.484957 6.58962,-1.766335 1.131984,-0.774339 2.065596,-1.774398 2.72912,-2.899967 0.159358,-0.120779 0.387203,-0.115314 0.573588,-0.187583 2.459995,-0.698857 4.569343,-2.31487 5.718812,-4.376911 0.953682,-1.689198 1.262437,-3.660569 0.859451,-5.517829 -0.03292,-0.113222 -0.05247,-0.264052 0.08783,-0.327583 0.312375,-0.134737 0.627083,-0.26743 0.924111,-0.428964 1.926172,-1.021461 3.369468,-2.745988 3.898576,-4.690411 0.515749,-1.856643 0.216485,-3.888487 -0.854978,-5.548833 -0.200012,-0.320023 -0.405226,-0.637445 -0.607735,-0.956235 -0.805907,0.645503 -1.622234,1.301991 -2.593727,1.74528 -0.354365,0.170068 -0.747909,0.324365 -1.109488,0.443279 -0.805723,0.263401 -1.653815,0.423458 -2.510396,0.470993 -0.06878,0.0024 -0.162323,0.008 -0.245916,0.0098 -0.139436,-0.0064 -0.287753,0.0269 -0.421696,-0.0133 -0.160136,-0.06764 -0.182466,-0.294322 -0.01522,-0.366208 0.136984,-0.06542 0.29771,-0.01704 0.445525,-0.03646 2.260036,-0.06931 4.466058,-0.994386 5.973238,-2.497728 1.38023,-1.360575 2.183514,-3.179009 2.188357,-5.016026 0.01692,-1.846401 -0.748412,-3.692825 -2.130763,-5.070002 -0.298487,-0.304585 -0.63559,-0.577627 -0.969308,-0.849377 -0.09408,-0.158438 0.05729,-0.313126 0.100844,-0.4634 0.828017,-2.012707 0.627965,-4.340378 -0.543165,-6.213667 -1.109572,-1.805005 -3.072129,-3.179424 -5.310984,-3.687941 -2.150359,-0.499908 -4.520035,-0.213358 -6.431001,0.803078 -1.960529,1.027441 -3.432403,2.778958 -3.955087,4.756126 -0.161885,0.599708 -0.232749,1.216844 -0.243301,1.832709 -0.05003,0.159296 -0.320175,0.207716 -0.416735,0.0576 -0.08673,-0.124363 -0.02381,-0.276812 -0.03658,-0.414048 0.0073,-0.229754 0.03429,-0.492157 0.06261,-0.698466 0.255265,-1.840521 1.260148,-3.588735 2.787989,-4.846562 1.318085,-1.098059 3.012661,-1.834859 4.80011,-2.060898 0.284178,-0.03862 0.570414,-0.06403 0.857178,-0.08116 0.08743,-0.0035 0.227917,-0.01061 0.335669,-0.01576 0.07332,-0.03338 0.101559,-0.134853 0.15746,-0.194535 0.616882,-0.873813 0.972607,-1.899348 0.963996,-2.934968 0.0026,-1.504771 -0.749626,-2.996127 -2.018541,-3.9885959 -1.251475,-0.9973045 -2.9867,-1.4950562 -4.654938,-1.3171232 -1.369475,0.1333795 -2.683681,0.6985944 -3.634692,1.5905271 -0.45772,0.422318 -0.829239,0.914872 -1.122987,1.439275 -0.121184,0.125014 -0.392378,0.06575 -0.404562,-0.10849 -0.0195,-0.141818 0.110469,-0.250957 0.166208,-0.374507 0.662091,-1.080976 1.728326,-1.9547039 2.98275,-2.4667521 0.121942,-0.049811 0.285172,-0.1129215 0.426883,-0.1598586 0.580117,-0.2021159 1.196131,-0.2972842 1.794731,-0.4440526 0.383756,-0.086755 0.767442,-0.1737549 1.151142,-0.2607074 C 48.98537,6.8762394 47.349823,5.9364713 45.562425,5.264085 43.845752,4.6032975 42.013472,4.1169333 40.133578,4.0713875 c -0.9026,-0.016028 -1.81449,0.17999 -2.586947,0.6022809 -1.229505,0.6551362 -2.106445,1.8236229 -2.27378,3.0967626 -0.03001,0.1612736 -0.02227,0.329719 -0.05752,0.4880473 -0.08009,0.13208 -0.275936,0.1018593 -0.413656,0.086215 C 34.734121,8.3117353 34.775214,8.2055465 34.75936,8.1424101 34.741057,6.9777428 34.129126,5.8134216 33.119121,5.0604583 32.200811,4.3716141 30.987307,4.0315917 29.793485,4.0743744 Z" /></g>















<g
   inkscape:groupmode="layer"
   id="layer2"
   inkscape:label="Layer 2"
   transform="translate(-184.47579,-208.45832)"><path
     id="path3419"
     style="display:none;fill:none;stroke:#000000;stroke-width:1;stroke-miterlimit:4;stroke-dasharray:none"
     d="m 214.35352,210.3819 c -2.20946,0.0673 -4.34511,0.69995 -6.34129,1.51622 -1.42171,0.58355 -2.75979,1.31275 -4.09339,2.04058 -0.28096,0.15166 -0.56193,0.30331 -0.84289,0.45497 0.84436,0.20496 1.69615,0.38132 2.54022,0.58675 1.83348,0.43475 3.45399,1.5647 4.35234,3.06346 0.0586,0.12 0.16029,0.23248 0.17594,0.36392 -0.009,0.16351 -0.23165,0.28013 -0.38585,0.17919 -0.14176,-0.0883 -0.16571,-0.25676 -0.2614,-0.37825 -0.89694,-1.46676 -2.53485,-2.55507 -4.36997,-2.87548 -1.65058,-0.30581 -3.42886,-0.009 -4.84002,0.81893 -1.58273,0.91671 -2.69033,2.47223 -2.91392,4.15233 -0.18217,1.28027 0.13,2.60938 0.86358,3.71918 0.14872,0.30301 0.53394,0.45754 0.8897,0.43736 1.67425,0.10508 3.31145,0.61793 4.70328,1.45664 0.0695,0.0438 0.19014,0.11655 0.277,0.17417 1.98602,1.28808 3.40698,3.26695 3.84525,5.43186 0.11487,0.55204 0.18007,1.11548 0.15503,1.67715 -0.0644,0.16973 -0.35887,0.20962 -0.45438,0.0419 -0.081,-0.13131 -0.0229,-0.28738 -0.0459,-0.4299 -0.0811,-2.14364 -1.15257,-4.23891 -2.90652,-5.69818 -1.5986,-1.34426 -3.74584,-2.15732 -5.93974,-2.22085 -2.26538,-0.0795 -4.55404,0.62397 -6.27774,1.94529 -1.72767,1.30882 -2.89797,3.20126 -3.18078,5.21546 -0.20748,1.41682 0.009,2.87975 0.61222,4.20188 0.0365,0.16476 -0.13904,0.26453 -0.25943,0.35546 -1.89844,1.47912 -3.0634,3.68548 -3.1255,5.9397 -0.0712,1.98141 0.68996,3.97785 2.11072,5.49912 1.51592,1.64155 3.76091,2.7364 6.13263,2.94046 0.34757,0.0355 0.70099,0.0325 1.04711,0.0625 0.17915,0.0682 0.20986,0.32014 0.0278,0.40206 -0.15232,0.0724 -0.33152,0.0157 -0.49578,0.0268 -2.00344,-0.0598 -3.97251,-0.70838 -5.55494,-1.80854 -0.49205,-0.34103 -0.94375,-0.72537 -1.4201,-1.08346 -0.59147,0.90453 -1.20385,1.81873 -1.50533,2.84115 -0.67731,2.12651 -0.34783,4.49548 0.91034,6.40012 0.97286,1.49201 2.48168,2.69665 4.24687,3.39242 0.14529,0.0884 0.1187,0.26177 0.0751,0.39156 -0.4987,2.34399 0.0504,4.85123 1.50513,6.85063 1.34871,1.87421 3.45652,3.30255 5.84693,3.93145 0.15363,0.0529 0.3705,0.0485 0.44039,0.20902 0.3384,0.5587 0.72596,1.09448 1.17969,1.58403 1.46924,1.60415 3.53989,2.76208 5.80331,3.21247 2.46129,0.50152 5.12381,0.18726 7.34097,-0.89941 2.38658,-1.15285 4.24852,-3.15542 5.05379,-5.47759 0.33633,-0.95628 0.49356,-1.96029 0.49124,-2.96207 0.005,-0.0555 0.0453,-0.10797 0.11416,-0.0951 0.12014,-0.009 0.27934,-0.0368 0.37186,0.0416 0.0434,0.20007 -0.002,0.40705 0.0265,0.60956 0.10885,2.38026 1.28322,4.7023 3.19928,6.35282 1.7851,1.55311 4.19738,2.52033 6.68466,2.64669 2.49879,0.14017 5.04817,-0.54239 7.03442,-1.91184 1.23507,-0.84396 2.25247,-1.93732 2.97559,-3.16768 0.17257,-0.13114 0.4193,-0.12541 0.62112,-0.20398 2.66528,-0.76018 4.95,-2.51923 6.19438,-4.76302 1.02787,-1.83097 1.36282,-3.96608 0.93234,-5.97943 -0.0314,-0.12255 -0.0686,-0.28402 0.0739,-0.36328 0.23301,-0.11359 0.48271,-0.19888 0.7119,-0.32034 2.21118,-1.07381 3.88814,-2.99399 4.50595,-5.17963 0.59797,-2.06817 0.25959,-4.34486 -0.95276,-6.18788 -0.20206,-0.32199 -0.40404,-0.64402 -0.60629,-0.96592 -0.87325,0.70303 -1.75799,1.41798 -2.81123,1.90029 -0.93384,0.4466 -1.95139,0.75157 -2.99625,0.90264 -0.14179,0.0203 -0.33117,0.0436 -0.49256,0.0589 -0.20093,0.0197 -0.39166,0.0322 -0.58129,0.04 -0.15543,0.004 -0.35301,0.0149 -0.52457,0.005 -0.19779,-0.0396 -0.26609,-0.30439 -0.0858,-0.40232 0.14933,-0.0892 0.33681,-0.0285 0.50405,-0.0513 2.4551,-0.0758 4.85087,-1.08833 6.48344,-2.7321 1.49996,-1.4922 2.36544,-3.4879 2.35323,-5.4983 0.004,-2.05056 -0.87986,-4.0945 -2.44705,-5.59192 -0.28639,-0.2791 -0.60429,-0.53206 -0.91273,-0.78936 -0.0959,-0.17662 0.0701,-0.34522 0.1175,-0.51174 0.88897,-2.1823 0.67376,-4.70296 -0.58668,-6.73446 -1.1912,-1.95303 -3.29605,-3.44389 -5.70179,-4.00828 -2.30533,-0.5506 -4.84991,-0.26493 -6.91729,0.80793 -2.18334,1.11329 -3.82326,3.05673 -4.39219,5.25191 -0.17062,0.64357 -0.24449,1.30541 -0.25669,1.96573 -0.0548,0.17497 -0.35088,0.22578 -0.45339,0.059 -0.089,-0.13082 -0.0248,-0.29013 -0.0377,-0.4339 0.004,-0.16587 0.023,-0.36728 0.0361,-0.51015 0.20068,-1.92255 1.14284,-3.7758 2.63907,-5.16674 0.1188,-0.11097 0.27574,-0.25158 0.41986,-0.3709 1.27255,-1.0627 2.86681,-1.81759 4.57137,-2.13668 0.11612,-0.0221 0.28255,-0.051 0.41948,-0.0713 0.37246,-0.057 0.77919,-0.0968 1.13643,-0.11647 0.12599,-0.006 0.25197,-0.0121 0.37794,-0.0183 0.6625,-0.89119 1.10682,-1.92703 1.17536,-3.00152 0.14421,-1.75376 -0.67005,-3.54553 -2.13905,-4.71187 -1.32552,-1.07819 -3.1654,-1.62712 -4.94791,-1.47012 -1.63498,0.13084 -3.20697,0.83816 -4.27827,1.95579 -0.39926,0.40896 -0.72773,0.87042 -1.00071,1.35442 -0.13461,0.13468 -0.42682,0.0635 -0.43593,-0.12665 -0.0147,-0.15143 0.11826,-0.26899 0.1797,-0.40129 0.95174,-1.56246 2.68222,-2.71634 4.61771,-3.10848 0.75155,-0.17309 1.50314,-0.34606 2.25461,-0.51942 -1.77789,-0.96687 -3.53794,-1.98018 -5.45889,-2.70929 -1.85728,-0.7199 -3.83883,-1.25212 -5.87337,-1.30691 -0.94862,-0.021 -1.90818,0.17173 -2.73183,0.60006 -1.38539,0.70385 -2.38227,2.00503 -2.56541,3.42764 -0.0314,0.17275 -0.0247,0.35256 -0.0601,0.52252 -0.087,0.14612 -0.30134,0.11349 -0.45225,0.0953 -0.0653,-0.0321 -0.0277,-0.13385 -0.042,-0.19583 -0.0146,-1.46548 -0.88341,-2.90706 -2.26572,-3.69785 -0.92256,-0.53869 -2.03892,-0.78947 -3.1358,-0.74893 z" /><path
     id="path3419-0"
     style="display:inline;fill:none;stroke:#000000;stroke-width:2;stroke-miterlimit:4;stroke-dasharray:none"
     d="m 214.62832,210.48302 c -2.16375,0.0528 -4.27221,0.61514 -6.24557,1.38396 -2.11534,0.81801 -4.04236,1.96088 -6.01688,3.01162 -0.23558,0.14521 -0.39408,0.38419 -0.42851,0.638 -1.88027,0.57913 -3.46914,1.85989 -4.32399,3.46631 -0.70057,1.29695 -0.9163,2.7977 -0.59947,4.21064 0.10385,0.47562 0.26278,0.94176 0.47534,1.38747 -2.37979,0.3691 -4.60132,1.52222 -6.11983,3.20724 -1.55883,1.70523 -2.40653,3.9299 -2.27958,6.13507 0.0386,0.81291 0.20126,1.62063 0.47723,2.3957 -2.16161,1.85935 -3.32498,4.61317 -3.05146,7.28876 0.14895,1.58293 0.76997,3.12868 1.78559,4.43136 -0.65994,1.00057 -1.28167,2.04629 -1.55277,3.19272 -0.70061,2.62677 -0.007,5.52756 1.86385,7.64997 0.85657,0.98503 1.93889,1.81238 3.16172,2.41221 -0.42616,2.82303 0.54779,5.79137 2.62244,7.95232 1.39318,1.46856 3.25227,2.58408 5.30957,3.15394 1.46609,2.28622 3.95086,4.03437 6.78897,4.74349 2.81893,0.71761 5.94601,0.42595 8.52535,-0.8259 2.17615,-1.04609 3.9573,-2.73645 4.99434,-4.74421 0.98939,1.92029 2.6547,3.55756 4.7102,4.60164 2.10447,1.08272 4.60003,1.54999 7.01137,1.28658 2.66769,-0.27835 5.22118,-1.41814 7.03904,-3.19394 0.59183,-0.56889 1.11167,-1.19785 1.54709,-1.8705 3.19762,-0.87826 5.89448,-3.093 7.15967,-5.86468 0.76171,-1.64644 1.02897,-3.47246 0.77488,-5.23959 2.43863,-1.18999 4.29256,-3.30844 4.97323,-5.72224 0.67386,-2.33292 0.25522,-4.9015 -1.14209,-6.96168 -0.12019,-0.19165 -0.24038,-0.38331 -0.36057,-0.57496 1.5028,-1.92709 2.13395,-4.3897 1.67683,-6.70789 -0.35859,-1.89169 -1.39876,-3.67906 -2.9465,-5.00853 0.93496,-2.54978 0.51014,-5.46867 -1.13399,-7.71383 -1.51782,-2.09772 -4.02896,-3.61286 -6.78882,-4.02333 0.63561,-1.32431 0.79856,-2.83175 0.41579,-4.23476 -0.46095,-1.74167 -1.71642,-3.30999 -3.43806,-4.22668 -0.0452,-0.0342 -0.18342,-0.078 -0.17566,-0.10411 0.0957,-0.0221 0.19146,-0.0442 0.28718,-0.0662 -1.44028,-0.7623 -2.859,-1.55667 -4.29259,-2.32871 -1.33576,-0.72461 -2.70864,-1.40185 -4.15639,-1.931 -1.69825,-0.62218 -3.49034,-1.0842 -5.32869,-1.18704 -0.73789,-0.0403 -1.48665,-0.0132 -2.20323,0.16118 -1.31465,0.30343 -2.51158,1.0007 -3.34426,1.96219 -0.0916,0.10389 -0.17822,0.21134 -0.26223,0.32028 -0.74784,-1.01479 -1.88538,-1.79346 -3.17923,-2.16431 -0.71674,-0.21319 -1.47495,-0.30787 -2.22931,-0.29851 z" /></g></svg>
